<?xml version="1.0" standalone="no"?>
<!DOCTYPE svg PUBLIC "-//W3C//DTD SVG 20010904//EN"
 "http://www.w3.org/TR/2001/REC-SVG-20010904/DTD/svg10.dtd">
<svg version="1.0" xmlns="http://www.w3.org/2000/svg"
 width="3419.000000pt" height="3419.000000pt" viewBox="0 0 3419.000000 3419.000000"
 preserveAspectRatio="xMidYMid meet">
<metadata>
Created by potrace 1.11, written by Peter Selinger 2001-2013
</metadata>
<g transform="translate(0.000000,3419.000000) scale(0.100000,-0.100000)"
fill="#000000" stroke="none">
<path d="M15289 30626 c-2 -2 -62 -7 -134 -10 -71 -4 -146 -9 -165 -10 -19 -2
-66 -7 -105 -10 -38 -4 -83 -8 -100 -10 -16 -3 -57 -7 -90 -10 -33 -4 -71 -8
-85 -11 -14 -2 -47 -7 -75 -10 -27 -3 -61 -7 -75 -10 -14 -2 -43 -7 -65 -10
-22 -3 -89 -14 -150 -25 -116 -21 -116 -21 -238 -46 -42 -8 -87 -17 -100 -19
-12 -3 -121 -30 -242 -60 -203 -51 -316 -83 -485 -138 -36 -12 -67 -22 -70
-22 -3 -1 -12 -4 -20 -8 -8 -3 -49 -17 -91 -30 -74 -25 -233 -84 -359 -134
-226 -89 -676 -302 -875 -415 -44 -25 -100 -56 -125 -70 -144 -80 -616 -383
-684 -439 -6 -5 -72 -55 -146 -110 -128 -96 -389 -305 -400 -320 -3 -4 -25
-23 -50 -44 -126 -104 -537 -503 -655 -636 -92 -104 -185 -210 -222 -254 -64
-76 -225 -278 -248 -309 -11 -15 -49 -67 -85 -114 -82 -111 -184 -259 -314
-460 -402 -621 -765 -1448 -966 -2207 -18 -66 -33 -125 -35 -131 -2 -6 -32
-17 -67 -24 -379 -74 -764 -186 -1143 -330 -124 -47 -168 -65 -208 -86 -16 -8
-33 -14 -38 -14 -16 0 -470 -214 -529 -250 -8 -5 -73 -41 -145 -81 -71 -39
-158 -89 -192 -110 -34 -21 -64 -39 -67 -39 -2 0 -40 -23 -83 -52 -43 -28
-109 -72 -148 -97 -92 -60 -341 -240 -430 -310 -88 -69 -282 -230 -317 -262
-14 -13 -59 -53 -99 -89 -76 -66 -402 -390 -474 -470 -43 -48 -227 -262 -254
-295 -15 -19 -82 -102 -108 -135 -7 -8 -26 -33 -42 -55 -17 -22 -34 -45 -38
-50 -237 -311 -492 -725 -684 -1110 -87 -175 -110 -225 -186 -405 -24 -58 -48
-114 -53 -125 -4 -11 -22 -56 -38 -100 -17 -44 -38 -100 -47 -125 -65 -170
-195 -607 -229 -770 -3 -14 -19 -86 -35 -160 -16 -74 -32 -148 -35 -165 -21
-123 -26 -152 -30 -170 -2 -11 -7 -42 -10 -70 -4 -27 -11 -81 -17 -120 -5 -38
-12 -92 -15 -120 -3 -27 -7 -60 -9 -72 -2 -12 -6 -57 -10 -100 -4 -43 -9 -94
-11 -113 -23 -235 -23 -923 0 -1120 3 -19 7 -69 11 -110 6 -80 13 -144 21
-200 3 -19 7 -55 10 -80 3 -25 7 -56 9 -70 2 -14 7 -43 10 -65 14 -95 79 -436
100 -525 181 -770 456 -1438 878 -2135 206 -340 524 -762 806 -1070 254 -278
638 -637 846 -790 44 -33 71 -55 89 -70 79 -71 474 -341 677 -462 352 -211
760 -410 1114 -543 77 -29 154 -58 170 -65 37 -15 251 -85 365 -119 207 -62
592 -152 770 -181 19 -3 60 -10 90 -15 30 -5 73 -11 95 -15 22 -3 51 -7 65
-10 14 -2 48 -7 75 -10 53 -6 120 -14 170 -20 17 -2 66 -7 110 -10 44 -3 94
-8 110 -10 17 -2 91 -7 165 -10 l135 -7 145 -97 c484 -326 1033 -594 1540
-751 58 -18 114 -36 125 -41 37 -14 331 -92 394 -104 9 -2 63 -13 121 -24 183
-37 203 -41 300 -56 330 -50 592 -69 940 -68 210 0 415 7 492 17 18 3 60 7 93
10 33 3 88 9 122 12 l62 6 238 -239 c250 -251 410 -400 563 -522 23 -19 48
-40 54 -46 45 -42 355 -279 483 -368 602 -420 1289 -774 1948 -1004 206 -71
613 -195 688 -209 12 -2 58 -13 102 -24 249 -65 732 -149 1000 -175 33 -3 74
-8 90 -10 17 -2 64 -7 105 -10 41 -3 100 -8 130 -10 299 -24 815 -24 1115 0
22 2 83 6 135 10 52 3 106 8 120 10 14 2 50 7 80 10 93 10 144 16 170 20 14 2
45 7 70 10 25 3 86 12 135 21 50 8 104 16 120 19 90 13 399 77 525 109 219 56
296 77 455 126 266 82 611 207 767 279 26 11 49 21 52 21 18 0 497 233 651
317 112 61 448 258 470 276 6 4 66 45 135 90 108 71 162 109 320 222 54 39
185 138 190 144 3 3 23 19 45 36 22 16 42 31 45 35 3 3 30 25 60 50 63 52 76
63 185 156 176 152 531 500 675 663 41 46 83 92 92 102 56 59 258 309 368 454
141 188 160 215 280 395 46 69 85 127 87 130 2 2 151 5 331 6 290 1 538 9 612
18 14 2 65 7 113 11 48 3 96 8 105 10 9 1 44 6 77 9 33 4 71 9 85 11 14 2 42
7 63 10 77 11 115 17 212 35 55 11 111 21 125 24 52 9 257 57 305 71 28 8 107
30 178 50 217 60 571 186 742 264 22 10 69 31 105 47 221 96 541 269 773 417
70 45 135 87 145 92 9 6 19 12 22 15 3 3 34 25 70 49 200 137 470 353 660 526
97 89 365 359 448 451 237 265 473 578 648 860 38 61 74 119 81 130 110 174
289 528 418 829 89 207 251 693 290 873 3 12 7 31 10 43 2 11 6 28 9 37 3 9 7
28 10 42 2 14 16 79 30 145 14 66 28 134 31 150 12 66 35 213 40 260 4 28 8
61 10 75 5 31 24 207 30 275 24 273 24 773 0 1045 -53 609 -181 1176 -387
1725 -34 88 -71 183 -83 210 -13 28 -35 79 -50 115 -74 176 -262 539 -370 711
-5 9 -18 31 -29 49 -44 79 -255 390 -323 475 -13 17 -27 35 -31 40 -140 189
-348 428 -547 629 -341 343 -649 592 -1095 886 -188 124 -587 340 -810 439
-196 86 -531 216 -613 236 -15 4 -28 12 -28 19 -4 29 -7 53 -13 81 -3 17 -8
50 -12 75 -9 75 -74 388 -106 510 -89 346 -205 683 -343 990 -57 128 -191 395
-234 468 -17 29 -31 54 -31 56 0 8 -171 282 -243 390 -142 213 -304 423 -481
626 -120 138 -404 424 -536 540 -52 45 -108 95 -125 109 -44 39 -168 137 -249
197 -39 29 -75 57 -81 61 -17 14 -178 127 -220 154 -177 115 -333 209 -470
284 -170 93 -431 216 -595 282 -47 18 -94 38 -105 43 -35 15 -235 88 -265 95
-3 1 -12 4 -20 7 -16 7 -73 24 -180 57 -170 52 -481 126 -655 156 -155 27
-201 34 -245 40 -25 3 -56 8 -70 10 -14 2 -54 7 -90 10 -36 4 -81 8 -100 10
-34 4 -142 12 -265 20 -74 5 -561 6 -630 1 -27 -2 -95 -7 -150 -11 -55 -4
-113 -8 -130 -11 -16 -2 -57 -6 -90 -9 -33 -3 -67 -8 -76 -11 -11 -3 -39 19
-80 63 -278 295 -570 566 -864 802 -212 169 -352 272 -570 418 -131 87 -479
303 -489 303 -2 0 -52 27 -112 61 -279 156 -722 359 -1049 479 -93 34 -179 66
-190 70 -153 59 -725 222 -865 246 -14 3 -68 14 -120 25 -52 11 -106 23 -120
25 -14 2 -47 9 -75 14 -27 5 -66 12 -85 15 -19 3 -46 7 -60 10 -14 2 -43 7
-65 10 -22 3 -51 7 -65 10 -14 2 -63 9 -110 15 -47 6 -96 13 -110 15 -30 5
-139 16 -195 20 -77 6 -191 16 -240 21 -55 6 -860 15 -866 10z"/>
</g>
</svg>
