<?xml version="1.0" standalone="no"?>
<!DOCTYPE svg PUBLIC "-//W3C//DTD SVG 20010904//EN"
 "http://www.w3.org/TR/2001/REC-SVG-20010904/DTD/svg10.dtd">
<svg version="1.0" xmlns="http://www.w3.org/2000/svg"
 width="1000.000000pt" height="1000.000000pt" viewBox="0 0 1000.000000 1000.000000"
 preserveAspectRatio="xMidYMid meet">
<metadata>
Created by potrace 1.11, written by Peter Selinger 2001-2013
</metadata>
<g transform="translate(0.000000,1000.000000) scale(0.100000,-0.100000)"
fill="#000000" stroke="none">
<path d="M3949 8176 c-2 -2 -35 -6 -74 -10 -56 -5 -155 -22 -240 -41 -248 -55
-538 -198 -759 -373 -69 -55 -221 -202 -281 -272 -185 -215 -330 -486 -415
-772 -17 -56 -32 -103 -34 -105 -2 -2 -34 3 -72 11 -118 26 -135 28 -294 31
-172 4 -246 -4 -399 -41 -183 -45 -376 -136 -529 -249 -99 -73 -269 -247 -342
-350 -106 -149 -229 -413 -256 -550 -2 -11 -10 -47 -18 -80 -24 -97 -27 -131
-31 -310 -6 -310 41 -531 171 -800 95 -195 169 -299 324 -456 250 -252 560
-408 905 -456 103 -14 420 -6 468 13 9 3 12 -26 12 -113 0 -65 3 -140 7 -168
4 -27 10 -68 14 -90 5 -34 22 -113 39 -178 3 -9 7 -25 9 -35 14 -52 69 -189
109 -269 156 -313 396 -561 698 -720 295 -156 647 -212 969 -152 69 13 198 47
225 59 11 5 44 18 72 30 297 113 603 390 759 686 l38 71 110 -75 c179 -120
386 -210 571 -248 174 -36 416 -50 571 -32 555 63 1045 400 1264 871 34 71 39
74 100 58 115 -31 390 -45 530 -27 30 3 75 9 99 12 24 3 95 18 157 34 518 134
937 482 1183 983 55 111 116 274 128 336 2 13 6 28 9 32 7 13 42 191 51 264
10 87 11 400 0 480 -10 82 -35 224 -41 234 -3 4 -8 23 -11 42 -12 71 -89 279
-147 396 -50 102 -174 305 -197 323 -3 3 -22 26 -41 52 -96 129 -349 349 -505
440 -177 103 -440 205 -582 225 l-41 5 -32 92 c-212 615 -743 1051 -1355 1113
-291 30 -597 -31 -853 -168 -150 -80 -258 -163 -382 -291 l-75 -78 -60 56
c-170 156 -328 265 -518 358 -174 85 -355 146 -507 171 -35 5 -62 10 -110 21
-30 6 -385 16 -391 10z"/>
</g>
</svg>
